<svg width="20" height="20" viewBox="0 0 20 20" fill="none" xmlns="http://www.w3.org/2000/svg">
<path d="M2.75 5.74954H11.25C11.7144 5.75843 12.1722 5.63775 12.5718 5.40103C12.9715 5.16431 13.2973 4.82092 13.5127 4.40937C13.7282 3.99783 13.8247 3.5344 13.7914 3.07108C13.7582 2.60775 13.5965 2.16285 13.3245 1.78627C13.0526 1.4097 12.681 1.11635 12.2517 0.939117C11.8223 0.761887 11.352 0.70779 10.8936 0.782894C10.4352 0.857998 10.0068 1.05933 9.65643 1.36432C9.30606 1.6693 9.04758 2.06587 8.91 2.50954M0.75 9.74948H16.25C16.7144 9.74059 17.1722 9.86128 17.5718 10.098C17.9715 10.3347 18.2973 10.6781 18.5127 11.0897C18.7282 11.5012 18.8247 11.9646 18.7914 12.4279C18.7582 12.8913 18.5965 13.3362 18.3245 13.7128C18.0526 14.0893 17.681 14.3827 17.2517 14.5599C16.8223 14.7371 16.352 14.7912 15.8936 14.7161C15.4352 14.641 15.0068 14.4397 14.6564 14.1347C14.3061 13.8297 14.0476 13.4332 13.91 12.9895M1.75 13.7495H7.25C7.71443 13.7406 8.17216 13.8613 8.57183 14.098C8.97151 14.3347 9.29733 14.6781 9.51274 15.0897C9.72816 15.5012 9.82466 15.9646 9.79142 16.4279C9.75817 16.8913 9.5965 17.3362 9.32453 17.7127C9.05256 18.0893 8.68105 18.3827 8.25167 18.5599C7.82229 18.7371 7.35203 18.7912 6.89362 18.7161C6.43522 18.641 6.0068 18.4397 5.65643 18.1347C5.30605 17.8297 5.04758 17.4332 4.91 16.9895" stroke="#CCA266" stroke-width="1.5" stroke-linecap="round" stroke-linejoin="round"/>
</svg>
